<svg xmlns="http://www.w3.org/2000/svg" width="119" height="32" viewBox="0 0 119 32" fill="none"><g id="upgaming logo-01 1" clip-path="url(#clip0_1_13508)"><path id="Vector" fill-rule="evenodd" clip-rule="evenodd" d="M4.01829 22.8968L5.52309 23.8597C5.64693 23.9369 5.7885 23.9792 5.93346 23.9823C6.07841 23.9854 6.2216 23.9493 6.3485 23.8775C6.4754 23.8056 6.5815 23.7007 6.65605 23.5734C6.73059 23.446 6.77094 23.3008 6.77298 23.1523V12.4379C6.77357 12.2912 6.81156 12.1472 6.88319 12.0202C6.95483 11.8932 7.05762 11.7875 7.18139 11.7137L20.297 4L23.6986 6.00983L10.5473 13.7544C10.4245 13.8283 10.3225 13.9337 10.2514 14.0602C10.1802 14.1866 10.1424 14.3299 10.1417 14.4758V29.9958L0.548198 24.3228C0.382491 24.2248 0.244705 24.0842 0.148534 23.9148C0.0523625 23.7454 0.00115491 23.5531 0 23.3572L0 8.48C0.00058687 8.33331 0.0385783 8.18933 0.110212 8.06231C0.181846 7.93528 0.284637 7.82962 0.408407 7.75579L13.5295 0L16.9311 2.00982L3.79079 9.71228C3.66611 9.786 3.56251 9.89195 3.49036 10.0195C3.41821 10.1471 3.38003 10.2919 3.37964 10.4393V21.7151C3.38044 21.9512 3.43939 22.1832 3.55102 22.3898C3.66266 22.5964 3.82337 22.7708 4.01829 22.8968Z" fill="#1DE9B6"></path><path id="Vector_2" fill-rule="evenodd" clip-rule="evenodd" d="M23.5862 17.965L20.1133 19.9945C19.9472 20.0927 19.8092 20.2338 19.713 20.4037C19.6168 20.5737 19.5658 20.7665 19.5651 20.9629V24.306L26.5136 20.2303C26.6793 20.1323 26.817 19.9916 26.9132 19.8222C27.0094 19.6528 27.0606 19.4606 27.0618 19.2646V9.44008C27.0598 9.29433 27.021 9.15158 26.949 9.02581C26.8771 8.90003 26.7745 8.79554 26.6513 8.72255C26.5281 8.64956 26.3885 8.61057 26.2461 8.6094C26.1038 8.60823 25.9636 8.64492 25.8393 8.71587L13.9434 15.7025C13.8196 15.7764 13.7168 15.882 13.6452 16.0091C13.5736 16.1361 13.5356 16.2801 13.535 16.4267V32.0001L16.2047 30.4225C16.3704 30.3246 16.5082 30.1839 16.6044 30.0145C16.7005 29.8451 16.7517 29.6529 16.7529 29.4569V18.6303C16.7532 18.4838 16.7908 18.34 16.8619 18.213C16.9331 18.086 17.0353 17.9802 17.1586 17.906L24.011 13.8387V17.2267C24.0112 17.3775 23.9719 17.5255 23.8972 17.6553C23.8224 17.7852 23.715 17.8921 23.5862 17.965Z" fill="#1DE9B6"></path><path id="Vector_3" d="M43.6393 9.36694H45.4593V14.9445C45.4593 16.3592 45.0353 17.5007 44.1875 18.369C43.3396 19.2374 42.2304 19.664 40.8599 19.649C39.4766 19.649 38.3674 19.2205 37.5323 18.3634C36.6973 17.5064 36.2733 16.3648 36.2605 14.9389V9.36694H38.0778V14.9445C38.0556 15.3287 38.11 15.7134 38.2377 16.0754C38.3654 16.4373 38.5638 16.7688 38.8206 17.0497C39.303 17.5438 39.9828 17.7908 40.8599 17.7908C41.737 17.7908 42.4168 17.5438 42.8992 17.0497C43.155 16.7682 43.3525 16.4365 43.4797 16.0747C43.6069 15.7129 43.6612 15.3284 43.6393 14.9445V9.36694Z" fill="white"></path><path id="Vector_4" d="M51.3058 17.2883C52.1829 17.2883 52.8636 17.0413 53.3478 16.5473C53.8321 16.0532 54.0788 15.2906 54.0879 14.2595C54.0879 13.1143 53.8412 12.2881 53.3478 11.7809C52.8545 11.2738 52.1738 11.0305 51.3058 11.0511C50.4232 11.0511 49.7434 11.2944 49.2665 11.7809C49.0104 12.0645 48.8128 12.3982 48.6856 12.7619C48.5584 13.1255 48.5043 13.5118 48.5264 13.8974V22.8125H46.7064V13.8974C46.7064 12.4743 47.1285 11.3346 47.97 10.4701C48.8115 9.6055 49.9243 9.18726 51.3058 9.18726C52.6873 9.18726 53.8001 9.61112 54.6361 10.4616C55.4721 11.3122 55.9161 12.6034 55.9161 14.2595C55.9161 15.5002 55.6567 16.5126 55.1377 17.2967C54.6753 18.0122 54.0037 18.5595 53.219 18.8602C51.9889 19.3533 50.6183 19.3281 49.4063 18.7901V16.682C49.9472 17.1123 50.6219 17.3277 51.3058 17.2883Z" fill="white"></path><path id="Vector_5" d="M63.7417 18.5853C63.1173 18.8219 62.4558 18.939 61.7901 18.9306C60.4087 18.9306 59.2995 18.5021 58.4626 17.645C57.6256 16.7879 57.2017 15.6455 57.1907 14.2176C57.1907 12.6831 57.6147 11.478 58.4626 10.6022C59.3104 9.7264 60.4196 9.3016 61.7901 9.3278C63.1734 9.3278 64.2826 9.7526 65.1177 10.6022C65.9528 11.4518 66.3767 12.6569 66.3895 14.2176V17.9987C66.3895 19.4078 65.9692 20.5465 65.1286 21.4148C64.2881 22.2831 63.1816 22.7145 61.8093 22.7089H58.9669V20.845H61.8093C62.6864 20.845 63.3625 20.598 63.8376 20.1039C64.3253 19.5678 64.589 18.8575 64.5722 18.125C64.5581 18.1309 64.5458 18.1406 64.5366 18.1531L64.564 18.125V14.6892C64.5667 14.665 64.5667 14.6405 64.564 14.6162V14.2176C64.564 13.1931 64.3173 12.4296 63.8212 11.9215C63.3251 11.4134 62.6645 11.1889 61.7819 11.1889C60.8993 11.1889 60.225 11.4331 59.7426 11.9215C59.2602 12.4099 59.0025 13.1931 59.0025 14.2176C58.9806 14.602 59.0348 14.9869 59.162 15.3492C59.2892 15.7115 59.4867 16.0437 59.7426 16.3257C60.225 16.8197 60.9048 17.0667 61.7819 17.0667C62.4747 17.1014 63.1597 16.9044 63.7335 16.5053L63.7417 18.5853Z" fill="white"></path><path id="Vector_6" d="M74.3877 16.6736V18.9193C74.3881 18.9226 74.3878 18.9259 74.3869 18.9292C74.386 18.9324 74.3845 18.9354 74.3824 18.938C74.3804 18.9406 74.3779 18.9428 74.375 18.9444C74.3721 18.946 74.369 18.947 74.3657 18.9473L72.9952 19.1157C72.176 19.2264 71.3427 19.1201 70.575 18.807C69.7906 18.5043 69.1192 17.9563 68.6563 17.2407C68.1373 16.4566 67.8787 15.4442 67.8806 14.2035C67.8806 12.669 68.3045 11.4638 69.1524 10.588C70.0003 9.71224 71.1094 9.28744 72.4799 9.31364C73.8632 9.31364 74.9752 9.74124 75.8157 10.5964C76.6563 11.4517 77.0811 12.5979 77.0903 14.035V18.9193H75.273V14.035C75.2949 13.6492 75.2405 13.2628 75.1128 12.8991C74.9852 12.5353 74.787 12.2018 74.5302 11.9186C74.0533 11.4301 73.3735 11.1859 72.4909 11.1859C71.6083 11.1859 70.9258 11.4283 70.4434 11.9129C69.95 12.4182 69.7006 13.1845 69.7006 14.2091C69.7006 15.2336 69.95 15.9915 70.4434 16.4968C70.9368 17.0021 71.6056 17.2379 72.4827 17.2379C73.1518 17.2744 73.8122 17.0698 74.3493 16.6596C74.3511 16.6544 74.3549 16.6501 74.3598 16.6478C74.3646 16.6454 74.3702 16.6451 74.3753 16.647C74.3804 16.6488 74.3846 16.6527 74.3869 16.6577C74.3892 16.6627 74.3895 16.6684 74.3877 16.6736Z" fill="white"></path><path id="Vector_7" d="M86.3603 10.647C86.7486 10.2277 87.2161 9.89384 87.7345 9.66567C88.2529 9.4375 88.8112 9.31982 89.3754 9.31982C89.9396 9.31982 90.4979 9.4375 91.0163 9.66567C91.5347 9.89384 92.0022 10.2277 92.3905 10.647C93.1214 11.5078 93.4869 12.6306 93.4869 14.0154V18.9193H91.6696V14.0351C91.6696 13.0994 91.4512 12.3789 91.0145 11.8737C90.5761 11.4314 89.9853 11.1835 89.3699 11.1835C88.7545 11.1835 88.1638 11.4314 87.7253 11.8737C87.2959 12.3789 87.0812 13.0994 87.0812 14.0351V18.9193H85.2447V14.0351C85.2447 13.0994 85.03 12.3789 84.6006 11.8737C84.1622 11.4314 83.5714 11.1835 82.956 11.1835C82.3406 11.1835 81.7499 11.4314 81.3114 11.8737C80.8765 12.3789 80.6591 13.0994 80.6591 14.0351V18.9193H78.8391V14.0351C78.8391 12.6428 79.2045 11.52 79.9354 10.6666C80.3233 10.2467 80.7907 9.91212 81.3091 9.68348C81.8276 9.45485 82.3861 9.33692 82.9505 9.33692C83.515 9.33692 84.0735 9.45485 84.5919 9.68348C85.1103 9.91212 85.5778 10.2467 85.9656 10.6666C86.0314 10.7452 86.0944 10.8238 86.152 10.9024L86.3603 10.647Z" fill="white"></path><path id="Vector_8" d="M97.2009 18.9194H95.3864V10.431C95.3864 10.1843 95.4819 9.94766 95.6519 9.77297C95.822 9.59828 96.0528 9.49977 96.2936 9.49902C96.535 9.49902 96.7665 9.59721 96.9371 9.77198C97.1078 9.94675 97.2037 10.1838 97.2037 10.431L97.2009 18.9194Z" fill="white"></path><path id="Vector_9" d="M108.299 18.9193H106.479V14.0351C106.502 13.6495 106.448 13.2631 106.32 12.8994C106.193 12.5357 105.996 12.202 105.739 11.9186C105.262 11.4302 104.582 11.186 103.7 11.186C102.817 11.186 102.137 11.4302 101.661 11.9186C101.164 12.4239 100.918 13.1313 100.918 14.0351V18.9193H99.1004V14.0351C99.1004 12.6185 99.5235 11.4733 100.37 10.5993C101.216 9.72543 102.326 9.30064 103.7 9.32496C105.081 9.32496 106.19 9.74976 107.027 10.5993C107.864 11.4489 108.288 12.5942 108.299 14.0351V18.9193Z" fill="white"></path><path id="Vector_10" d="M116.349 18.5853C115.726 18.822 115.065 18.939 114.401 18.9306C113.016 18.9306 111.905 18.5021 111.07 17.645C110.235 16.7879 109.811 15.6455 109.798 14.2176C109.798 12.6831 110.222 11.478 111.07 10.6022C111.918 9.7264 113.028 9.3016 114.401 9.3278C115.782 9.3278 116.891 9.7526 117.728 10.6022C118.565 11.4518 118.989 12.6569 119 14.2176V17.9987C119 19.4078 118.579 20.5465 117.736 21.4148C116.894 22.2831 115.788 22.7145 114.417 22.7089H111.575V20.845H114.417C115.294 20.845 115.971 20.598 116.448 20.1039C116.935 19.5673 117.197 18.8572 117.18 18.125C117.166 18.1316 117.154 18.1412 117.144 18.1531L117.172 18.125V14.6892C117.174 14.665 117.174 14.6405 117.172 14.6162V14.2176C117.172 13.1931 116.925 12.4296 116.432 11.9215C115.938 11.4134 115.275 11.1889 114.392 11.1889C113.51 11.1889 112.836 11.4331 112.35 11.9215C111.865 12.4099 111.61 13.1931 111.61 14.2176C111.588 14.602 111.643 14.9869 111.77 15.3492C111.897 15.7115 112.094 16.0437 112.35 16.3257C112.836 16.8197 113.513 17.0667 114.392 17.0667C115.084 17.1012 115.768 16.9042 116.341 16.5053L116.349 18.5853Z" fill="white"></path></g><defs><clipPath id="clip0_1_13508"><rect width="119" height="32" fill="white"></rect></clipPath></defs></svg>